<?xml version="1.0" encoding="UTF-8" standalone="no"?>
<!-- Uploaded to: SVG Repo, www.svgrepo.com, Generator: SVG Repo Mixer Tools -->

<svg
   fill="#000000"
   width="640"
   height="512"
   viewBox="0 0 640 512"
   id="Flat"
   version="1.1"
   sodipodi:docname="tab_icon-proj.svg"
   inkscape:export-filename="shuffle-fill-svgrepo-com.svg"
   inkscape:export-xdpi="96"
   inkscape:export-ydpi="96"
   xml:space="preserve"
   xmlns:inkscape="http://www.inkscape.org/namespaces/inkscape"
   xmlns:sodipodi="http://sodipodi.sourceforge.net/DTD/sodipodi-0.dtd"
   xmlns="http://www.w3.org/2000/svg"
   xmlns:svg="http://www.w3.org/2000/svg"><defs
     id="defs1" /><sodipodi:namedview
     id="namedview1"
     pagecolor="#ffffff"
     bordercolor="#000000"
     borderopacity="0.25"
     inkscape:showpageshadow="2"
     inkscape:pageopacity="0.0"
     inkscape:pagecheckerboard="0"
     inkscape:deskcolor="#d1d1d1" /><path
     style="fill:#808080;stroke:none"
     d="M 309.0625,6.3315449 C 291.95885,8.5773048 275.16694,9.5090923 258.28125,13.730532 213.62171,24.895435 171.39074,49.276215 139.56199,82.5625 117.92696,105.18828 100.19761,132.4461 88.440755,161.46875 36.534156,289.60391 101.51695,442.30962 232.5,490.33342 c 39.57121,14.50839 81.77791,18.71414 123.4375,13.1022 C 480.80427,486.6149 575.45578,371.14239 569.96924,245.84375 565.09773,134.5903 484.19697,35.717588 374.6875,12.086016 353.9992,7.6215801 330.24258,3.5505829 309.0625,6.3315449 M 307.5,37.473064 c 17.00537,-2.006483 35.60469,0.327254 52.34375,3.351641 C 464.88978,59.80435 546.04699,159.36273 538.6801,266.9375 c -7.37453,107.68628 -88.54766,194.07854 -196.02385,206.80819 -25.58031,3.02977 -52.42698,0.63901 -77.34375,-5.7376 -25.29793,-6.47411 -49.75934,-17.55671 -71.09375,-32.65213 C 172.49808,419.98721 153.46567,400.71121 138.55107,378.65625 77.479852,288.34715 94.243617,164.72443 174.6875,92.070108 212.3907,58.017784 258.17747,43.292671 307.5,37.473064 m -50,78.683186 9.375,25.78125 c 13.09752,-5.37343 25.71316,-10.69725 39.84375,-12.7116 14.22253,-2.02746 29.05829,-1.8785 42.1875,4.75021 19.3804,9.78482 27.04926,34.21151 20.25101,54.05514 -12.04998,35.17318 -52.74691,51.80678 -64.19933,87.5 -3.7425,11.66413 -3.586,24.01195 -1.36418,35.9375 h 28.125 c 0,-19.69454 4.40927,-35.63461 16.59071,-51.5625 18.37469,-24.02585 48.91305,-42.08634 57.50688,-72.65625 2.47097,-8.78973 2.88481,-17.54243 1.80482,-26.5625 C 399.19722,90.329987 306.9302,88.026005 257.5,116.15625 m 60.9375,243.31174 c -5.93863,0.64382 -11.76608,1.89264 -16.33573,6.07338 -18.40572,16.83936 -4.79447,49.03846 20.24198,46.5754 33.68425,-3.31383 30.01721,-56.32641 -3.90625,-52.64878 z"
     id="path1" /></svg>
